PathFileType	4	(X/Y/Z)	E:\Qualisys_Data\Carbon_Farble_Plate\Data\Amateur_Runner\S2\T3\S2T3V13_c3d.trc
DataRate	CameraRate	NumFrames	NumMarkers	Units	OrigDataRate	OrigDataStartFrame	OrigNumFrames
200.000000	200.000000	5	39	mm	200.000000	273	312
Frame#	Time	LSHO			RSHO			LICST			RICST			LASIS			LHEEL			RASIS			LTROC			RTROC			SACR			LTH1			LSK4			LTH2			LTH3			RHM5			LSK2			LTH4			RTH1			LTOE			RTH2			RTH3			RTH4			LLEP			RLEP			LSK1			LSK3			RSK1			LHM5			RSK2			LFT1			RSK3			RSK4			LLME			RLME			RTOE			RHEEL			RFT1			RFT2			LFT2			
		X1	Y1	Z1	X2	Y2	Z2	X3	Y3	Z3	X4	Y4	Z4	X5	Y5	Z5	X6	Y6	Z6	X7	Y7	Z7	X8	Y8	Z8	X9	Y9	Z9	X10	Y10	Z10	X11	Y11	Z11	X12	Y12	Z12	X13	Y13	Z13	X14	Y14	Z14	X15	Y15	Z15	X16	Y16	Z16	X17	Y17	Z17	X18	Y18	Z18	X19	Y19	Z19	X20	Y20	Z20	X21	Y21	Z21	X22	Y22	Z22	X23	Y23	Z23	X24	Y24	Z24	X25	Y25	Z25	X26	Y26	Z26	X27	Y27	Z27	X28	Y28	Z28	X29	Y29	Z29	X30	Y30	Z30	X31	Y31	Z31	X32	Y32	Z32	X33	Y33	Z33	X34	Y34	Z34	X35	Y35	Z35	X36	Y36	Z36	X37	Y37	Z37	X38	Y38	Z38	X39	Y39	Z39	

274	1.365	1818.3125	1432.46533203125	-478.580322265625	1774.855102539062	1430.726318359375	-164.2949981689453	1733.1337890625	977.138916015625	-451.2092590332031	1728.41162109375	975.2265014648438	-148.2381439208984	1787.640747070312	928.9324951171876	-435.0835876464844	1337.571655273438	178.1369934082031	-336.3566284179688	1789.616088867188	930.6754760742188	-174.9019317626953	1649.49658203125	861.9200439453125	-447.4560852050781	1660.86376953125	866.0377197265625	-138.9104309082031	1638.516235351562	1017.051391601562	-306.578857421875	1743.717895507812	611.54443359375	-455.89697265625	1485.5595703125	319.4180297851562	-428.2231140136719	1661.935424804688	622.6067504882812	-459.6891784667969	1729.56494140625	510.8373413085938	-436.0802612304688	1720.765747070312	138.8633880615234	-153.4870452880859	1548.98486328125	395.1710205078125	-446.32958984375	1645.190551757812	525.0613403320312	-437.9009399414062	1907.1064453125	672.0732421875	-130.0188903808594	1535.157104492188	51.025390625	-349.0505676269531	1837.013671875	636.3649291992188	-128.7232208251953	1951.227783203125	582.2955322265625	-151.7196350097656	1877.754272460938	548.4597778320312	-148.4533843994141	1669.01220703125	472.1896057128906	-438.3987121582031	1912.383422851562	533.151123046875	-145.7532806396484	1610.22412109375	345.3704833984375	-439.0182495117188	1546.503051757812	268.8846740722656	-423.7172241210938	1876.394287109375	420.7849426269531	-149.2136077880859	1471.064086914062	55.8847541809082	-408.1896667480469	1819.821411132812	477.7992858886719	-141.5122528076172	1334.76708984375	151.1443176269531	-304.3211669921875	1804.325805664062	349.5645446777344	-160.7892608642578	1750.31591796875	407.4823608398438	-154.48046875	1405.623046875	158.2827758789062	-393.51318359375	1649.3681640625	246.5996246337891	-186.6341857910156	1785.991088867188	111.8648071289062	-206.8526153564453	1590.775268554688	266.6684265136719	-247.4613189697266	1587.0576171875	236.8495635986328	-275.5679626464844	1572.3271484375	247.4656372070312	-227.6157836914062	1321.820068359375	147.9557952880859	-355.4986267089844
275	1.37	1835.365234375	1436.82275390625	-476.6114807128906	1788.858276367188	1434.899047851562	-163.8435974121094	1751.768310546875	980.8093872070312	-450.5111999511719	1744.719970703125	979.66552734375	-147.8237152099609	1805.77001953125	932.199951171875	-433.9192504882812	1345.873779296875	186.2846374511719	-339.1898803710938	1806.075439453125	935.296875	-173.8713226318359	1667.56103515625	865.7874755859375	-447.4348754882812	1678.297729492188	870.9376831054688	-138.2193450927734	1656.313232421875	1020.954895019531	-306.9205932617188	1756.157836914062	614.6345825195312	-455.6861572265625	1493.469848632812	325.5574645996094	-429.9576721191406	1675.146118164062	627.6339721679688	-461.4630737304688	1739.48291015625	514.224853515625	-436.1756896972656	1755.768432617188	134.6732177734375	-152.3550415039062	1556.305297851562	401.536376953125	-448.4283142089844	1655.466430664062	530.5571899414062	-438.9591674804688	1925.100219726562	676.8779296875	-130.3313446044922	1537.450317382812	50.41250610351562	-350.4455871582031	1855.134399414062	641.767578125	-128.3786010742188	1968.997192382812	587.5198364257812	-152.1443481445312	1895.177124023438	553.415771484375	-148.2460632324219	1677.901977539062	477.3301086425781	-439.3671264648438	1929.216918945312	537.0101928710938	-145.7598114013672	1617.93603515625	351.0116882324219	-440.5615539550781	1553.785400390625	274.4704284667969	-426.4786376953125	1897.604248046875	423.4710693359375	-148.8620147705078	1473.7021484375	57.62581634521484	-409.770751953125	1838.129638671875	477.2658386230469	-141.0529327392578	1341.91552734375	160.3461761474609	-306.6458129882812	1829.00732421875	348.3223266601562	-161.1634063720703	1772.155883789062	403.5276794433594	-154.4675445556641	1412.91259765625	163.0354156494141	-395.8023376464844	1679.079833984375	238.1568756103516	-187.5692901611328	1823.044067382812	111.0381469726562	-204.9539794921875	1620.113403320312	254.4608764648438	-248.5635833740234	1618.12109375	224.4797515869141	-276.2312622070312	1602.881103515625	234.2315521240234	-228.7039794921875	1329.276611328125	156.2677612304688	-358.0461730957031
276	1.375	1852.539672851562	1441.202514648438	-474.8533020019531	1802.906372070312	1438.849731445312	-163.5283203125	1770.481323242188	984.3792724609376	-449.7159118652344	1761.079345703125	984.2708129882812	-147.3692779541016	1823.862670898438	935.28564453125	-432.2558288574219	1355.022827148438	194.2163543701172	-342.2091064453125	1822.433349609375	939.6563720703124	-172.7247009277344	1684.843872070312	869.783203125	-447.1296997070312	1695.184814453125	875.6340942382812	-136.8927612304688	1673.370849609375	1024.516479492188	-306.8355102539062	1768.558471679688	617.9541625976562	-455.7070007324219	1501.263916015625	331.0033264160156	-431.7669677734375	1687.53369140625	632.2960815429688	-460.5360717773438	1749.380737304688	517.9188842773438	-436.1827392578125	1790.44384765625	130.7619476318359	-151.4682159423828	1564.668212890625	407.1781921386719	-449.5833740234375	1665.8046875	536.0195922851562	-439.3135986328125	1942.432373046875	681.4846801757812	-130.7286529541016	1540.006958007812	50.26052093505859	-351.6605224609375	1872.632690429688	646.144775390625	-128.4784698486328	1985.97412109375	591.908935546875	-152.32421875	1912.7373046875	558.521484375	-147.6737976074219	1687.10107421875	482.0553588867188	-439.9950256347656	1946.125732421875	541.1110229492188	-145.797607421875	1625.566528320312	356.7289733886719	-442.2618713378906	1561.68896484375	280.2593994140625	-428.6246032714844	1918.154296875	425.565185546875	-148.2003784179688	1477.582885742188	58.79889678955078	-411.5932922363281	1856.471435546875	476.2095031738281	-140.6097412109375	1350.103271484375	169.1162567138672	-309.5150451660156	1853.882202148438	347.2420349121094	-160.8011322021484	1794.0537109375	399.7436828613281	-154.2417602539062	1420.459594726562	167.7609100341797	-397.9796752929688	1709.064697265625	229.6904754638672	-187.6289672851562	1859.6748046875	110.5754928588867	-202.9659118652344	1650.161865234375	242.6276550292969	-249.7824554443359	1650.322143554688	212.1516723632812	-278.0035095214844	1633.33642578125	221.4524993896484	-230.0501403808594	1337.329956054688	165.1431732177734	-360.9046020507812
277	1.38	1869.480102539062	1445.513793945312	-473.1826782226562	1817.438232421875	1442.613037109375	-162.4622039794922	1788.788208007812	987.8062744140624	-448.79931640625	1777.371704101562	988.5676879882812	-146.8320617675781	1841.914306640625	938.5004272460938	-430.9454956054688	1364.874267578125	202.5418395996094	-345.69091796875	1838.755004882812	943.843017578125	-171.5696563720703	1702.250610351562	873.9254150390625	-447.3189086914062	1711.94970703125	880.2103881835938	-135.9183349609375	1690.829467773438	1028.598388671875	-307.1809692382812	1780.714721679688	621.340576171875	-455.6069641113281	1509.4345703125	336.6194458007812	-433.2467651367188	1699.88037109375	637.1157836914062	-460.7933044433594	1759.101196289062	521.5198364257812	-436.4466552734375	1825.12548828125	127.2775726318359	-149.9766693115234	1572.806640625	412.62353515625	-450.8277893066406	1675.95166015625	541.0702514648438	-439.8078002929688	1960.0068359375	685.6823120117188	-131.0013275146484	1542.133056640625	49.41925430297852	-351.2869873046875	1890.10498046875	650.7733154296875	-127.7844314575195	2002.804931640625	596.0314331054688	-152.4683837890625	1929.419189453125	563.6332397460938	-146.1898956298828	1696.379272460938	487.398193359375	-440.5872497558594	1962.212524414062	546.365478515625	-143.9220123291016	1634.030639648438	362.7309265136719	-443.7979431152344	1569.849365234375	285.8162536621094	-430.8977355957031	1938.716186523438	427.5198974609375	-147.8533935546875	1480.669677734375	59.97501754760742	-412.5437316894531	1874.072875976562	474.6287536621094	-140.4877624511719	1358.379028320312	178.3126220703125	-312.9466247558594	1878.296264648438	346.110595703125	-160.1072845458984	1816.16845703125	395.4274291992188	-154.9874725341797	1429.482421875	172.2941589355469	-400.8721923828125	1739.36572265625	221.4905853271484	-188.4781646728516	1896.180419921875	110.6084213256836	-200.4673156738281	1680.08349609375	230.888671875	-250.0841217041016	1682.804321289062	200.4624481201172	-279.2521362304688	1664.54296875	208.9627227783203	-232.1585998535156	1346.3095703125	174.4313659667969	-364.2842712402344
278	1.385	1886.551879882812	1449.431762695312	-471.4481506347656	1831.833618164062	1446.385009765625	-162.0060577392578	1807.3427734375	991.3598022460938	-447.5315856933594	1793.63330078125	992.7661743164062	-146.4591217041016	1859.893676757812	941.02490234375	-429.6605224609375	1375.599975585938	211.1842346191406	-349.3081665039062	1855.411254882812	948.0488891601562	-170.4526214599609	1719.631469726562	877.951416015625	-447.3186340332031	1728.732666015625	884.9449462890625	-135.2115020751953	1708.467163085938	1032.260498046875	-307.1031188964844	1792.37939453125	625.083251953125	-455.3550720214844	1518.505615234375	342.1669921875	-434.6642761230469	1712.299560546875	641.950927734375	-460.7952880859375	1769.248657226562	525.3309326171875	-436.5993347167969	1859.7509765625	123.8704223632812	-148.6884613037109	1581.329956054688	418.2565612792969	-452.0899658203125	1686.358520507812	546.6655883789062	-439.6982116699219	1976.96142578125	689.9194946289062	-131.2262268066406	1544.828002929688	48.43677520751953	-352.4302368164062	1906.776000976562	655.0721435546875	-127.6911392211914	2019.217407226562	599.65234375	-152.7164916992188	1945.906860351562	566.4437255859375	-147.1377716064453	1705.66357421875	491.9759826660156	-440.62841796875	1978.662841796875	548.5128784179688	-146.2577972412109	1642.537353515625	368.4376525878906	-444.9609985351562	1578.386962890625	291.3258972167969	-433.0340881347656	1958.80029296875	429.1890869140625	-147.0762481689453	1484.954467773438	62.00979232788086	-413.951904296875	1891.791748046875	473.0314636230469	-140.10791015625	1367.931030273438	187.5464019775391	-316.5150451660156	1902.312255859375	344.6761474609375	-159.9102478027344	1837.947509765625	390.9866027832031	-154.8973846435547	1438.28173828125	177.0516357421875	-403.4176330566406	1769.380737304688	213.2878723144531	-188.9268035888672	1932.434936523438	111.0587997436523	-197.5877380371094	1711.22705078125	218.9105377197266	-252.6662750244141	1715.999633789062	188.8116607666016	-280.8129577636719	1696.546508789062	196.4882354736328	-233.4310760498047	1355.707641601562	184.0223236083984	-368.2023315429688
